<!-- Copyright 2000-2022 JetBrains s.r.o. and contributors. Use of this source code is governed by the Apache 2.0 license. -->
<svg width="16" height="16" viewBox="0 0 16 16" fill="none" xmlns="http://www.w3.org/2000/svg">
<path fill-rule="evenodd" clip-rule="evenodd" d="M7 2.5C4.51472 2.5 2.5 4.51472 2.5 7C2.5 9.48528 4.51472 11.5 7 11.5C8.05763 11.5 9.03005 11.1356 9.79735 10.525L12.6464 13.3741C12.8417 13.5693 13.1583 13.5693 13.3536 13.3741C13.5488 13.1788 13.5488 12.8622 13.3536 12.6669L10.5148 9.82813C11.1385 9.05688 11.5 8.0762 11.5 7C11.5 4.51472 9.48528 2.5 7 2.5ZM3.5 7C3.5 5.067 5.067 3.5 7 3.5C8.933 3.5 10.5 5.067 10.5 7C10.5 8.933 8.933 10.5 7 10.5C5.067 10.5 3.5 8.933 3.5 7Z" fill="#6C707E"/>
</svg>

