<svg width="16" height="16" viewBox="0 0 16 16" xmlns="http://www.w3.org/2000/svg" fill="currentColor">
  <path d="M8 1.5a6.5 6.5 0 1 0 0 13 6.5 6.5 0 0 0 0-13Zm0 1.5c.65 0 1.27.13 1.84.36-.52.39-1.03 1.11-1.38 2.14H7.54c-.35-1.03-.86-1.75-1.38-2.14A5 5 0 0 1 8 3Zm-3.2 1.1c.43.28.9.86 1.22 1.9H4.1c.2-.72.46-1.34.7-1.9Zm6.4 0c.24.56.5 1.18.7 1.9h-1.92c.32-1.04.79-1.62 1.22-1.9ZM3.5 8c0-.34.04-.67.1-1H6.2c-.05.32-.08.66-.08 1s.03.68.08 1H3.6c-.06-.33-.1-.66-.1-1Zm3.94 0c0-.34.03-.68.09-1h.94c.06.32.09.66.09 1s-.03.68-.09 1h-.94c-.06-.32-.09-.66-.09-1Zm2.36 0c0-.34-.03-.68-.08-1h2.6c.06.33.1.66.1 1s-.04.67-.1 1h-2.6c.05-.32.08-.66.08-1Zm-5.7 2h1.92c-.32 1.04-.79 1.62-1.22 1.9-.24-.56-.5-1.18-.7-1.9Zm3.44 0h.92c.35 1.03.86 1.75 1.38 2.14A5 5 0 0 1 8 13c-.65 0-1.27-.13-1.84-.36.52-.39 1.03-1.11 1.38-2.14Zm2.36 0h1.92c-.2.72-.46 1.34-.7 1.9-.43-.28-.9-.86-1.22-1.9Z"/>
</svg>
